<?xml version="1.0" encoding="utf-8"?>
<!DOCTYPE svg PUBLIC "-//W3C//DTD SVG 20010904//EN" "http://www.w3.org/TR/2001/REC-SVG-20010904/DTD/svg10.dtd">
<svg version="1.0" xmlns="http://www.w3.org/2000/svg" width="1280px" height="1280px" viewBox="0 0 1280 1280" preserveAspectRatio="xMidYMid meet">
 <g fill="none"  stroke="none">
  <path d="M0 640 l0 -640 640 0 640 0 0 640 0 640 -640 0 -640 0 0 -640z m617 49 c0 -0.6 2.7 -0.9 6.6 -0.8 3.9 0.1 6.8 -0.3 7.2 -0.9 0.4 -0.6 3.6 -1.5 7.2 -1.8 3.6 -0.4 7.9 -1.6 9.6 -2.6 1.7 -1.1 4.5 -1.9 6.2 -1.9 1.7 0 3.4 -0.5 3.7 -1 0.8 -1.3 7.2 -4 9.6 -4 1 0 2.4 -0.9 3.1 -1.9 0.8 -1 3.2 -2.4 5.5 -3 4.1 -1.1 18.7 -11 21.1 -14.3 0.7 -1 1.7 -1.8 2.2 -1.8 1.6 0 12.8 -11 19.4 -19 6.6 -7.9 12.8 -16.8 14.5 -21 0.6 -1.4 1.5 -3.2 2 -4 7.5 -12.3 15.1 -36.9 15.1 -49.2 0 -3.9 0.4 -6.8 1 -6.8 0.6 0 1 -3.2 1 -7.6 0 -9.4 -2 -26.4 -3.2 -26.4 -0.4 0 -0.8 -1.6 -0.8 -3.5 0 -4 -3 -15.3 -5.5 -21.2 -6.7 -15.3 -11.6 -24.8 -15.2 -29.3 -0.6 -0.8 -3.9 -5.2 -7.3 -9.7 -11 -14.8 -29.5 -30.3 -46.6 -39.1 -14.5 -7.5 -23.8 -10.8 -40.1 -14.4 -17.4 -3.8 -46.3 -2.7 -62.3 2.4 -24.5 7.7 -42.1 17.1 -57 30.4 -7.9 7 -21.7 22.2 -23.7 25.9 -0.8 1.7 -2.2 3.8 -3 4.7 -4.4 5 -13.9 25.3 -17.8 37.9 -11 35.9 -7.3 72.8 10.8 106.4 5.1 9.6 6.9 12.7 7.7 13.5 0.3 0.3 2.9 3.7 5.7 7.6 9.3 12.6 29 29.9 42.8 37.4 3.3 1.8 7.5 4.2 9.3 5.2 1.8 1 3.7 1.8 4.2 1.8 0.6 0 2.9 0.9 5.3 1.9 5.3 2.5 21.9 7.2 27.2 7.8 2.2 0.2 4.9 0.8 6 1.3 4 1.8 28.5 2.7 28.5 1z m-157.7 -85.2 c-0.5 -2.6 -2.3 -4 -2.3 -1.8 0 1 2.3 5.1 2.6 4.7 0.1 -0.1 0 -1.4 -0.3 -2.9z m297.7 -0.7 c0 -0.9 0.4 -2.1 0.9 -2.6 1.4 -1.5 4.1 -11.4 4.1 -15.1 0 -1.8 0.5 -3.4 1.1 -3.6 0.6 -0.2 1.3 -3.5 1.6 -7.3 0.3 -3.9 1 -7.3 1.6 -7.7 0.6 -0.3 1 -4.6 1 -9.7 0 -5 0.3 -9.1 0.8 -9.1 0.5 0 0.9 -0.9 0.9 -2 0 -1.1 -0.4 -2 -0.9 -2 -0.5 0 -0.9 -4.4 -0.8 -9.7 0 -9.6 -2.5 -24.8 -4.4 -26.8 -0.5 -0.5 -0.9 -1.9 -0.9 -3.1 0 -3.1 -3.6 -14.5 -5.4 -16.9 -1 -1.3 -0.7 0.7 1 6.3 5 17.4 5.8 24.9 5.8 52.7 0 24.4 -0.1 26.7 -2.6 38 -1.5 6.6 -3.4 14 -4.2 16.4 -1.9 5.1 -1.9 5.4 -0.6 4.6 0.6 -0.3 1 -1.4 1 -2.4z m-300.3 -6.8 c-0.2 -1.6 -1.1 -6.2 -2 -10.3 -0.8 -4.1 -1.8 -8.8 -2.1 -10.5 -1.1 -5.1 -2.4 -52 -1.5 -52.5 0.8 -0.6 3.1 -22.1 2.5 -22.8 -0.3 -0.2 -2 6.7 -4.5 18.3 -0.9 4.1 -3.1 21 -3.3 25 -0.1 3 2.3 23.2 3.7 30.5 1.8 9.3 6.2 25 7.1 25 0.4 0 0.4 -1.2 0.1 -2.7z m1.1 -104.5 c1.2 -3.9 2 -7.3 1.8 -7.5 -0.3 -0.3 -5.6 13.1 -5.6 14.3 0 0.2 0.4 0.4 0.8 0.4 0.5 0 1.9 -3.2 3 -7.2z"/>
  <path d="M593 680.4 c-1.4 -0.2 -5.9 -0.9 -10 -1.5 -13.3 -2 -23.6 -5.4 -41 -13.7 -17 -8.2 -38.8 -27.7 -49.9 -44.8 -4.4 -6.9 -15.1 -27.5 -15.1 -29.2 0 -0.7 -0.4 -2 -0.9 -3 -1.1 -2.1 -2.7 -9.2 -4.2 -18.7 -0.6 -3.8 -1.5 -7.7 -1.9 -8.6 -1.2 -2.4 0.6 -40.3 2.4 -47.9 3.2 -14.5 6.1 -24.5 7.2 -25.2 0.7 -0.4 1.5 -1.9 1.8 -3.3 0.3 -1.3 1.7 -4.1 3.1 -6.1 1.4 -2 2.5 -4.1 2.5 -4.6 0 -0.5 1.4 -2.9 3 -5.3 1.6 -2.4 3 -4.8 3 -5.4 0 -0.6 1.2 -2.4 2.8 -4 1.5 -1.7 4.1 -4.6 5.7 -6.6 5.9 -6.9 14 -15.2 17.5 -17.5 1.9 -1.3 4.1 -3.2 4.8 -4.2 0.7 -1 2 -1.8 2.8 -1.8 0.8 0 2.2 -0.8 3.2 -1.7 2.1 -2 18.1 -10.3 19.8 -10.3 0.7 0 1.4 -0.6 1.7 -1.4 0.3 -0.7 2.3 -1.6 4.4 -1.9 2.1 -0.4 5.6 -1.6 7.8 -2.7 2.1 -1.1 5.2 -2 6.7 -2 1.5 0 3 -0.4 3.3 -1 0.3 -0.5 2.8 -1 5.4 -1 2.6 0 5.2 -0.5 5.9 -1.2 1.2 -1.2 38 -1.9 38.7 -0.7 0.2 0.3 5 1.2 10.7 1.9 5.7 0.7 12.2 2.1 14.5 3.1 2.3 1.1 4.7 1.9 5.4 1.9 1.1 0 5.7 2 17.9 7.8 17.3 8.3 36.9 25.6 49.4 43.4 6.5 9.4 16.1 29.7 18.6 39.3 5.6 21.4 6.8 49 2.9 67.8 -4.3 21.4 -12.3 39.4 -24.6 55.5 -5.6 7.3 -17.6 19.9 -22.5 23.7 -16.6 12.8 -15.4 12 -27.8 18.1 -4.7 2.3 -11.9 5.1 -16 6.4 -4.1 1.2 -8.9 2.6 -10.7 3.1 -8.6 2.6 -38.9 4.6 -48.3 3.3z m-58.1 -127.8 c-0.2 -0.2 -2.4 -0.6 -4.9 -0.9 -3 -0.4 -3.8 -0.3 -2.5 0.3 1.9 0.8 8.3 1.4 7.4 0.6z m41.6 -114 c10.8 -5.3 19.2 -7.9 30.4 -9.6 16.3 -2.5 39.6 0.6 52.3 7 3.2 1.5 5.8 2.7 5.8 2.5 0 -0.9 -10.9 -7.1 -17 -9.6 -11 -4.7 -22.5 -6.3 -33.5 -4.9 -19.6 2.5 -37.7 9.9 -49.5 20.1 l-2.5 2.1 2.5 -1.6 c1.4 -0.9 6.6 -3.6 11.5 -6z"/>
 </g>
 <g fill="#fec2b5">
  <path d="M432 843.8 c0 -2.6 1.3 -5.8 2.2 -5.8 0.6 0 0.7 1.3 0.3 3.1 -0.5 2.2 -0.4 2.9 0.4 2.5 0.6 -0.4 1.1 -0.2 1.1 0.3 0 0.6 -0.9 1.1 -2 1.1 -1.1 0 -2 -0.6 -2 -1.2z"/>
  <path d="M646.8 840.3 c-2 -2.4 -3 -5.3 -1.8 -5.3 1 0 4.4 5.9 3.7 6.6 -0.2 0.2 -1.1 -0.4 -1.9 -1.3z"/>
  <path d="M485.5 838.3 c-1.6 -1.6 -1.9 -3.2 -0.9 -5.7 1 -2.6 2.3 -1.8 2.1 1.1 -0.3 3.8 2.1 4 6.2 0.3 2.2 -2.1 3.9 -2.9 5.2 -2.5 1.1 0.4 1.7 1 1.4 1.5 -0.3 0.4 -0.2 1.5 0.1 2.4 0.7 1.8 4 2.1 7.8 0.6 1.7 -0.6 2.6 -0.6 2.6 0 0 1.4 -4.4 3 -8.1 3 -2.2 0 -3.2 -0.6 -3.9 -2.5 -1.2 -3.1 -2.1 -3.1 -4.9 -0.1 -2.9 3.1 -5.7 3.8 -7.6 1.9z"/>
  <path d="M690.1 835.9 c-1.4 -4.1 -1.5 -3.9 1 -3.9 1.1 0 1.8 0.4 1.5 0.9 -0.9 1.4 0.4 4.1 2 4.1 0.8 0 1.4 0.5 1.4 1 0 0.6 -1.1 1 -2.4 1 -1.8 0 -2.7 -0.8 -3.5 -3.1z"/>
  <path d="M741.6 837.4 c-0.9 -0.8 -1.6 -2 -1.6 -2.5 0 -1.5 1.7 -1 2.4 0.6 0.6 1.7 4.3 2 8 0.5 3.1 -1.1 3.6 0.4 0.7 2 -2.9 1.5 -7.7 1.2 -9.5 -0.6z"/>
  <path d="M586 837.1 c0 -1.1 6.2 -6.2 6.9 -5.6 0.6 0.6 -4.9 6.5 -6.1 6.5 -0.4 0 -0.8 -0.4 -0.8 -0.9z"/>
  <path d="M727.5 836.9 c-0.8 -1.3 0.2 -5.9 1.3 -5.9 0.5 0 0.8 1.6 0.8 3.5 -0.1 3.5 -0.9 4.4 -2.1 2.4z"/>
  <path d="M525.5 835.4 c0.5 -1.1 0.8 -3.1 0.7 -4.6 -0.1 -2.5 0.2 -2.8 3.1 -2.8 2.3 0 2.8 0.3 1.8 0.9 -0.8 0.5 -1.9 2.4 -2.5 4.2 -0.6 1.8 -1.7 3.5 -2.5 3.7 -1.1 0.4 -1.2 0 -0.6 -1.4z"/>
  <path d="M471.2 835.3 c0.1 -0.4 -0.2 -3.4 -0.6 -6.6 -0.6 -4.6 -0.4 -6.3 0.8 -8.2 2 -3 5.2 -4.9 6.1 -3.5 0.3 0.6 -0.5 1.4 -1.8 1.9 -3.8 1.5 -4.5 4.6 -2.7 11.3 0.8 2.8 1.5 3.6 2.7 3.1 1.1 -0.4 1.4 -0.2 1.1 0.8 -0.5 1.5 -6 2.7 -5.6 1.2z"/>
  <path d="M565.4 834.8 c-0.5 -0.7 -0.7 -2.5 -0.6 -4 0.2 -2.6 0.1 -2.6 -3 -1.7 -1.8 0.5 -3.5 1.4 -3.6 1.9 -0.3 0.7 -0.9 0.7 -1.8 -0.1 -2.3 -1.9 -1.6 -2.8 2.4 -3.5 2 -0.3 5.2 -1.5 7 -2.5 3.6 -2.1 3.8 -1.8 1.7 4 -1.3 3.7 -1.3 4.3 0 4.7 0.8 0.4 1.2 1 0.9 1.5 -0.7 1.3 -2.1 1.1 -3 -0.3z"/>
  <path d="M704 833.9 c0 -1.8 -0.2 -1.9 -1.5 -0.9 -1.8 1.5 -1.9 0.1 -0.1 -2.2 0.7 -1 2.1 -1.8 3 -1.8 0.9 0 1.6 -0.7 1.6 -1.5 0 -0.8 0.5 -1.5 1.1 -1.5 0.6 0 0.9 0.6 0.6 1.3 -2 5.5 -1.7 6 1.3 2 1.7 -2.4 3.8 -4.3 4.6 -4.3 2.1 0 -6.7 10.9 -8.8 10.9 -1.2 0.1 -1.8 -0.6 -1.8 -2z"/>
  <path d="M440.1 834.3 c0.2 -1.8 9.5 -16.7 10.7 -17.1 0.8 -0.2 0.4 1.1 -0.9 3.5 -1.3 2.1 -3.6 6.2 -5.2 9.1 -2.5 4.5 -4.9 6.8 -4.6 4.5z"/>
  <path d="M718 832.9 c-1.5 -2.7 -0.4 -3.8 1.4 -1.3 1.3 1.7 1.6 1.8 3.3 0.3 1 -0.9 2.4 -1.4 3.1 -1.2 0.8 0.3 0.4 1.1 -1.2 2.4 -3.1 2.5 -5.3 2.4 -6.6 -0.2z"/>
  <path d="M773 832.5 c0 -1.4 0.5 -2.5 1 -2.5 0.6 0 1 0.7 1 1.5 0 0.8 0.5 1.5 1 1.5 0.6 0 1 0.5 1 1 0 0.6 -0.9 1 -2 1 -1.5 0 -2 -0.7 -2 -2.5z"/>
  <path d="M450.2 831.8 c-1.7 -1.7 -1.4 -4 0.9 -6.8 l2.1 -2.5 -0.7 2.5 c-1.9 7.3 0 7.6 6.6 1 2.8 -2.8 5.4 -4.9 5.6 -4.6 0.9 0.9 -4.7 7.6 -8.1 9.7 -3.6 2.2 -4.8 2.3 -6.4 0.7z"/>
  <path d="M577.8 826.7 c1.2 -1.3 2.2 -2.9 2.2 -3.5 0 -0.7 0.7 -1.2 1.5 -1.2 2.4 0 1.7 3.6 -1 5.4 -3.6 2.4 -5.2 2 -2.7 -0.7z"/>
  <path d="M729 826.3 c0 -0.5 0.4 -1.5 1 -2.3 1.1 -1.8 2.5 -0.7 1.7 1.5 -0.6 1.5 -2.7 2.1 -2.7 0.8z"/>
  <path d="M570 822.4 c0 -1.5 5 -4.4 7.5 -4.4 2.7 0 1.5 1.5 -3 3.6 -3.4 1.6 -4.5 1.8 -4.5 0.8z"/>
  <path d="M696 819.2 c0 -2.1 2.6 -6 3.4 -5.1 0.6 0.6 -2.1 6.9 -3 6.9 -0.2 0 -0.4 -0.8 -0.4 -1.8z"/>
  <path d="M731 819 c0 -0.5 0.7 -1 1.5 -1 0.8 0 1.5 0.5 1.5 1 0 0.6 -0.7 1 -1.5 1 -0.8 0 -1.5 -0.4 -1.5 -1z"/>
  <path d="M646 818.4 c0 -1.5 5.6 -11.7 8 -14.6 3.9 -4.6 5 -2.7 1.2 2 -1.7 2.2 -4 6 -5.2 8.5 -1.2 2.6 -2.6 4.7 -3.1 4.7 -0.5 0 -0.9 -0.3 -0.9 -0.6z"/>
  <path d="M681 817.5 c0 -0.8 1.6 -4.7 3.5 -8.5 2.6 -5.1 4.1 -7 5.5 -7 2.8 0 2.5 1.5 -1.9 9.5 -3.6 6.6 -7.1 9.6 -7.1 6z"/>
  <path d="M541.4 816.7 c-0.6 -1.7 4.9 -13.6 7.8 -16.7 1.1 -1.1 2.3 -1.8 2.8 -1.5 1.1 0.7 -0.4 5 -4.4 12.8 -3.3 6.3 -5.2 7.9 -6.2 5.4z"/>
  <path d="M665.4 814.8 c3.4 -4.6 6.7 -12.8 6.1 -14.8 -0.8 -2.6 -5 -2.6 -9.2 0 -2.3 1.4 -3.3 1.6 -3.3 0.7 0 -3.3 10.7 -6.4 13.2 -3.9 2.3 2.3 1.2 8.7 -2.6 14.5 -1.9 3.2 -4.1 5.7 -4.7 5.7 -0.7 0 -0.5 -0.9 0.5 -2.2z"/>
  <path d="M591.5 692.3 c-2.2 -0.2 -4.7 -0.7 -5.5 -1 -0.8 -0.3 -2.1 -0.5 -2.7 -0.4 -0.7 0.1 -3.2 -0.4 -5.5 -1 -2.4 -0.7 -4.7 -1.2 -5.2 -1 -0.4 0.1 -1.4 -0.3 -2 -0.9 -0.7 -0.5 -1.6 -0.7 -1.9 -0.3 -0.4 0.3 -1.3 0 -2.2 -0.7 -0.8 -0.7 -1.5 -0.9 -1.5 -0.5 0 0.4 -0.6 0.3 -1.2 -0.3 -0.7 -0.6 -1.5 -1 -1.8 -1 -1.1 0 -6.6 -1.5 -7.5 -2.1 -0.5 -0.3 -1.2 -0.6 -1.5 -0.7 -1.8 -0.3 -11.5 -4.9 -19.5 -9.4 -13.8 -7.6 -33.5 -24.8 -42.8 -37.4 -2.8 -3.9 -5.5 -7.2 -5.9 -7.4 -0.5 -0.2 -0.8 -0.9 -0.8 -1.5 0 -0.6 -0.6 -1.8 -1.4 -2.6 -1.4 -1.6 -12.9 -23.8 -13.3 -25.6 -0.1 -0.5 -1.3 -4.8 -2.7 -9.5 -1.4 -4.7 -3.1 -11.5 -3.8 -15.2 -0.7 -3.8 -1.5 -6.8 -1.8 -6.8 -0.3 0 -0.7 -6.9 -0.8 -15.3 -0.7 -31.6 4.4 -51.8 21.5 -83.9 0.8 -1.5 1.9 -3 2.4 -3.3 0.5 -0.4 1.8 -2.3 2.9 -4.3 2.2 -4.3 15.5 -19.1 24 -26.6 12.8 -11.4 28.5 -20.4 47.3 -27.2 2.6 -0.9 4.7 -2 4.7 -2.5 0 -0.4 1.2 -0.8 2.8 -0.8 1.5 0.1 5.6 -0.6 9.2 -1.4 11.6 -2.7 25.3 -3.9 39 -3.4 7.4 0.2 14.2 0.7 15 1 0.8 0.3 5.2 1.3 9.8 2.2 4.6 0.9 8.9 1.8 9.5 1.9 0.7 0.2 2.5 0.8 4 1.4 1.6 0.7 3.2 1.2 3.6 1.2 1.1 0 15.4 6.4 21.6 9.7 16.7 8.8 34.8 24.2 45.5 38.6 3.4 4.5 6.7 8.9 7.3 9.7 3.7 4.6 8.9 14.8 15.5 30 2.6 6 6.5 21.8 5.7 23 -0.3 0.6 -0.2 1 0.3 1 0.5 0 1.4 4.2 2 9.4 1.3 10.6 1.6 30.6 0.5 30.6 -0.5 0 -0.9 2.8 -1 6.3 -0.5 13.2 -8 37.7 -15.4 49.7 -0.5 0.8 -1.4 2.6 -2 4 -1.7 4.2 -7.9 13.1 -14.5 21 -6.6 8 -17.8 19 -19.4 19 -0.5 0 -1.5 0.8 -2.2 1.8 -2.6 3.5 -17.2 13.3 -21.5 14.4 -2.4 0.6 -4.1 1.3 -3.8 1.6 0.7 0.7 -4.7 4.2 -5.6 3.6 -0.9 -0.5 -5.8 1.5 -8.1 3.4 -1 0.8 -3 1.5 -4.4 1.5 -1.5 0 -4.8 1 -7.2 2.3 -2.7 1.5 -5.3 2.2 -6.7 1.8 -1.3 -0.3 -2.6 -0.1 -3 0.6 -0.4 0.6 -1.6 0.8 -2.7 0.4 -1.2 -0.4 -2.4 -0.1 -2.9 0.7 -0.5 0.9 -3 1.4 -7.3 1.4 -3.7 0 -6.6 0.3 -6.6 0.8 0 0.7 -20.6 0.7 -28.5 0z m22.5 -15.3 c0 -0.6 1.8 -0.7 4.5 -0.3 2.5 0.3 4.5 0.2 4.5 -0.3 0 -0.5 2.9 -0.9 6.4 -1 4.3 -0.1 7.3 -0.7 9.1 -1.8 1.4 -0.9 3 -1.4 3.6 -1.1 1.4 0.9 13 -3.1 22.9 -7.9 11.1 -5.5 12.3 -6.2 20 -12.1 3.6 -2.7 7.1 -5.4 7.9 -6 2.5 -1.9 10.9 -10.5 10.3 -10.6 -0.4 0 0.2 -0.4 1.3 -0.8 3.1 -1.3 17 -20.1 22.5 -30.5 5.8 -11 10.1 -23.5 13 -37.6 1.8 -8.9 2.1 -13.1 1.8 -27 -0.2 -9.1 -0.8 -17.2 -1.3 -18 -0.5 -0.8 -0.8 -2.2 -0.7 -3.1 0.6 -3.9 -5.3 -22.2 -10.8 -33.7 -11.6 -24 -26.3 -40.9 -48.3 -55.6 -7.6 -5 -24.4 -13.3 -28.8 -14.2 -0.9 -0.2 -2.9 -0.9 -4.5 -1.5 -1.6 -0.7 -3.2 -1.3 -3.6 -1.4 -0.5 -0.2 -0.9 -0.3 -1 -0.5 -0.2 -0.1 -1.4 -0.3 -2.8 -0.4 -3.9 -0.5 -17.3 -2.7 -18.9 -3.2 -2.4 -0.8 -27.7 -0.7 -28.9 0 -0.7 0.4 -1.7 0.4 -2.2 0.1 -0.6 -0.4 -1.7 -0.2 -2.4 0.4 -0.7 0.6 -3.2 1.2 -5.7 1.4 -2.4 0.2 -5.7 0.9 -7.2 1.5 -1.6 0.7 -3.3 1 -3.8 0.7 -0.4 -0.3 -1.9 0.1 -3.1 0.8 -2.9 1.9 -9.9 4.2 -11.6 3.9 -0.7 -0.2 -1.5 0.4 -1.8 1.3 -0.3 0.8 -1.1 1.5 -1.8 1.5 -1.7 0 -17.7 8.3 -19.8 10.3 -1 0.9 -2.4 1.7 -3.2 1.7 -0.8 0 -2.1 0.8 -2.8 1.8 -0.7 1 -2.9 2.9 -4.8 4.2 -3.5 2.3 -11.6 10.6 -17.5 17.5 -1.6 2 -4.2 4.9 -5.7 6.6 -1.6 1.6 -2.8 3.4 -2.8 4 0 0.6 -1.3 3 -3 5.4 -1.6 2.4 -3 4.8 -3 5.3 0 0.5 -1.1 2.6 -2.5 4.6 -1.4 2 -2.8 4.8 -3.1 6.2 -0.4 1.4 -1.2 2.8 -2 3.1 -0.7 0.2 -1 1.1 -0.7 1.9 0.3 0.8 0.1 2 -0.5 2.7 -1 1.2 -3.1 8.8 -5.9 20.7 -1.5 6.8 -3.3 39.8 -2.3 41.5 0.4 0.6 1.3 4.8 2 9.5 0.7 4.7 1.9 10.3 2.7 12.4 0.7 2.2 1.1 4.1 0.8 4.4 -0.3 0.3 0 1.1 0.6 1.9 0.7 0.7 1.2 2.1 1.3 3.1 0.2 2.2 10.5 22.2 15 29 11.1 17 33.1 36.6 50.1 44.6 2.2 1 5.6 2.6 7.5 3.6 5.5 2.8 18.1 7.1 19 6.5 0.5 -0.3 1.1 -0.1 1.4 0.4 0.5 0.8 13.4 3.4 22.1 4.4 6.8 0.9 18.5 0.6 18.5 -0.3z"/>
  <path d="M507.3 675.6 c-5.8 -4.2 -15.7 -13.5 -23.1 -21.9 -19.3 -21.7 -33.1 -50.1 -37.8 -77.7 -0.8 -5.2 -1.8 -10.2 -2 -11 -0.6 -1.6 -1.6 -15.6 -1.7 -21.5 0 -8.8 3.1 -28.9 6.7 -42.6 4.1 -15.4 13.7 -35.7 23.8 -50 0.9 -1.3 1.8 -3 2 -3.7 0.2 -0.7 2.8 -3.8 5.8 -7 3 -3.1 8.1 -8.4 11.3 -11.7 7.2 -7.5 10.4 -10.4 14.2 -13 4.9 -3.4 5.5 -3.7 5.5 -2.6 0 0.6 -0.6 1.1 -1.4 1.1 -0.7 0 -2.5 1.5 -3.8 3.3 -1.4 1.7 -4.5 5.3 -6.9 7.8 -2.4 2.6 -5.8 6.6 -7.6 9 -1.7 2.4 -4.7 6.1 -6.6 8.1 -1.9 2.1 -3.3 3.8 -3.1 3.8 0.5 0 -6.6 13 -9.3 17 -1.2 1.9 -2.3 3.9 -2.3 4.5 0 0.5 -1.1 3.1 -2.4 5.7 -1.3 2.7 -4.1 10.1 -6.1 16.5 -2.1 6.5 -4.1 11.9 -4.5 12.1 -0.4 0.1 -0.5 1.4 -0.2 2.7 0.2 1.5 0 2.5 -0.7 2.5 -0.7 0 -1 0.4 -0.7 0.9 0.7 1.1 -1.5 18.1 -2.3 18.1 -0.9 0 0.6 41.8 1.7 48 0.6 3 1.6 7.8 2.2 10.5 0.6 2.8 1.3 6.9 1.7 9.3 0.3 2.3 0.9 4.2 1.3 4.2 0.4 0 1.1 1.7 1.6 3.8 0.9 4.5 0.6 3.5 3.4 10.2 9.3 21.7 21.2 40 36 55.3 5.2 5.4 9.7 10 9.9 10.3 1.3 1.3 -1.8 -0.1 -4.6 -2z"/>
  <path d="M713 666.8 c5.7 -5.9 10.7 -11.6 11.1 -12.6 0.4 -1 1.8 -2.9 3.3 -4.2 1.4 -1.4 2.6 -3 2.6 -3.7 0 -0.6 0.3 -1.3 0.8 -1.5 1.5 -0.6 7.2 -10.1 12.1 -20.2 6.1 -12.4 13.1 -32.6 13.4 -38.3 0.1 -2.4 0.5 -4.3 0.9 -4.3 0.3 0 1.2 -3.3 2 -7.2 1.5 -8.4 1.8 -51.1 0.4 -54.3 -0.5 -1.1 -0.8 -3 -0.7 -4.2 0.1 -1.1 -0.2 -2.4 -0.8 -2.7 -0.6 -0.4 -0.8 -1.3 -0.5 -2 0.6 -1.6 -3.3 -17.6 -4.8 -19.3 -0.6 -0.7 -0.8 -1.3 -0.4 -1.3 1.7 0 -9.3 -25.5 -16.1 -37 -6.8 -11.6 -17.7 -25.3 -28.2 -35.4 -4 -3.8 -6.9 -7.1 -6.7 -7.4 0.7 -0.6 12.3 8.9 20.7 17 10.9 10.5 28.9 34.5 28.9 38.6 0 0.6 0.4 1.2 1 1.2 0.5 0 1.3 1.2 1.6 2.8 0.4 1.5 1.8 4.6 3.1 6.9 1.3 2.4 2.3 4.5 2.3 4.8 0 0.3 0.6 1.8 1.4 3.3 1.5 2.9 4.8 13.6 5.1 16.2 0 0.9 0.4 2 0.7 2.6 1.7 2.6 4.2 18.9 4.2 27.1 0.1 5.1 0.4 9.3 0.9 9.3 0.4 0 0.7 2.3 0.7 5 0 2.8 -0.3 5 -0.7 5 -0.5 0 -0.9 4.2 -1 9.2 -0.1 5.3 -0.6 9.4 -1.2 9.6 -0.5 0.2 -0.7 1 -0.4 1.8 0.7 1.9 -1.7 13.4 -2.8 13.4 -0.5 0 -0.6 0.6 -0.3 1.4 0.9 2.3 -3.3 15.4 -7.2 22.8 -0.8 1.4 -1.4 3.3 -1.4 4.2 0 1 -1.1 2.8 -2.4 4.1 -1.3 1.3 -2.2 2.6 -1.9 2.9 0.6 0.5 -4 9 -7.3 13.3 -1.3 1.7 -2.4 3.6 -2.4 4.2 0 0.6 -0.4 1.1 -0.9 1.1 -0.5 0 -1.3 0.9 -1.6 2 -0.3 1.1 -1.3 2 -2.1 2 -0.8 0 -1.3 0.4 -0.9 1 0.3 0.5 -1.9 3.5 -5 6.7 -3 3.2 -5.5 6.1 -5.5 6.6 0 0.5 -1.7 2.3 -3.7 4 -2.1 1.8 -5.9 5.3 -8.6 8 -2.7 2.6 -5.6 4.7 -6.5 4.7 -0.8 0 -2.5 0.8 -3.6 1.7 -1.2 1 2.6 -3 8.4 -8.9z"/>
 </g>
 <g fill="#39cfb5">
  <path d="M500.7 806.3 c-1.6 -1.6 -0.4 -6.8 2.7 -11.7 1.9 -2.9 6.6 -9 10.4 -13.5 l7 -8.1 3 -12.7 c4 -16.9 6.4 -29.1 6 -30.3 -0.5 -1.5 -1.9 -0.1 -9.8 9.5 -10.3 12.6 -25.9 27.8 -32.2 31.4 -8.6 4.9 -11.9 4.2 -14.4 -3.1 -1.8 -5.5 -1.3 -9.5 2.7 -22 9.4 -29.7 33.1 -55.3 46.4 -50.2 2.3 0.9 4.5 5.7 4.4 9.6 -0.1 8.3 -10.9 30.2 -13.5 27.5 -0.3 -0.3 1.3 -4.4 3.6 -9.2 4.6 -9.6 6.7 -17.7 5.6 -21.8 -0.5 -2.3 -1.1 -2.7 -4.4 -2.7 -7.8 0 -18.6 9.5 -27.9 24.5 -8.1 13.1 -15.4 35.5 -13.7 42.3 2.7 11.1 17.3 -0.5 49.8 -39.5 3.8 -4.6 7.3 -8.3 7.7 -8.3 1.8 0 2.1 2.5 1 7.4 -1.5 6.9 -7.2 34.4 -7.8 37.9 -0.3 1.5 -0.2 2.7 0.2 2.7 1.4 0 17.6 -16.4 19.1 -19.2 2.4 -4.5 7.5 -9.8 9.5 -9.8 2 0 2.7 2.6 0.8 3.2 -0.5 0.2 -0.7 1.1 -0.4 2.1 0.8 2 6.7 2.3 12.5 0.6 3.2 -1 4 -1.8 5.1 -5.3 2.1 -6.8 6.7 -16.6 7.8 -16.6 2.2 0 1.9 2.1 -1.4 10 -3 7.5 -3.2 8.5 -1.8 9.5 1.4 1.1 1.3 1.4 -0.7 2.8 -2.7 1.9 -7.7 17.9 -5.1 16.3 0.5 -0.4 2.5 -3.4 4.4 -6.9 1.9 -3.4 4.9 -8 6.6 -10.1 7.4 -9.2 9.9 -8.4 10.3 3.5 l0.3 7.9 5 -4.5 c5.6 -5 8.3 -5.4 10.2 -1.4 0.7 1.5 1.9 3.2 2.7 3.8 2.1 1.8 7 -1.1 10.6 -6.2 1.6 -2.3 4 -5.6 5.2 -7.4 2.9 -4 9.3 -7.1 11.6 -5.6 5.4 3.3 -0.7 14.1 -11 19.4 -3.3 1.7 -3.8 2.4 -3.8 5.4 0 2.9 0.4 3.6 2.5 4.1 3.7 0.9 11.8 -3.4 19.8 -10.6 6.6 -6 6.7 -6.3 6.7 -11.1 0 -2.8 0.7 -6.3 1.5 -7.8 2.2 -4.4 7.4 -8.3 10.4 -7.9 3.5 0.4 3.4 3.2 -0.1 3.6 -5.2 0.6 -10.4 10.5 -6.7 12.7 0.6 0.4 0.7 1.9 0.4 3.6 -0.4 1.7 -0.4 5.2 0 7.9 0.8 5.9 0.2 6.1 14.6 -4.2 5.3 -3.7 10.2 -6.8 10.8 -6.8 3.4 0 -0.6 4.1 -11.9 12.2 -12.5 8.9 -12.5 9 -14.1 14.6 -2.7 9.9 -5.7 14.2 -9.9 14.2 -1.8 0 -3.1 -0.8 -4 -2.5 -1.2 -2.2 -1.1 -3 0.3 -6.1 1 -1.9 3.7 -5.7 6.2 -8.3 4.1 -4.4 4.5 -5.2 4.5 -10 0 -5.9 -1.3 -6.5 -5.1 -2.5 -4.7 5.1 -14.6 11.4 -19.2 12.3 -6.4 1.2 -9 -0.3 -10.1 -5.7 l-0.9 -4.2 -4.7 0.6 c-4.5 0.6 -4.8 0.5 -7.8 -3.2 l-3.1 -3.7 -4.2 4.2 c-8.5 8.4 -10.4 7.8 -10.4 -3.5 0 -4.4 -0.4 -7.4 -1 -7.4 -1.3 0 -8.1 10.3 -12.6 19.1 -3.4 6.6 -6.1 9.5 -7.9 8.4 -1.5 -0.9 -1.2 -9.1 0.5 -16.4 0.9 -3.5 1.4 -6.5 1.3 -6.6 -0.2 -0.2 -2.4 0.2 -4.9 0.8 -4.6 1.1 -4.7 1.1 -5.1 5.8 -0.3 2.6 -1.5 6 -2.7 7.8 -1.8 2.5 -2.9 3.1 -6 3.1 -4 0 -7.1 -2.3 -7.1 -5.3 0 -3.6 -2.1 -2.2 -11.7 7.6 -7.7 7.9 -10.3 11.3 -11.6 15.2 -4.9 14.1 -12.8 25.5 -17.6 25.5 -1.5 0 -3.1 -0.3 -3.4 -0.7z m7.9 -6.5 c2.8 -3.4 7.8 -13.7 7 -14.5 -0.7 -0.8 -11.6 14.2 -11.6 16 0 2.6 1.5 2 4.6 -1.5z m143.7 -24.7 c2.1 -3.6 2.2 -5.1 0.2 -5.1 -1.4 0 -4.5 4.8 -4.5 7 0 2.1 2.6 0.9 4.3 -1.9z m-96.4 -17.7 c1.4 -3.1 1.4 -6 0.1 -8.5 -1.3 -2.3 -1.9 -2.3 -4.7 0 -2.9 2.4 -4 8.3 -1.9 10.4 2.1 2 5.1 1.1 6.5 -1.9z m82.1 -19.4 c0 -1.6 -3.7 -1.2 -5.5 0.6 -1.3 1.4 -1.4 1.9 -0.3 2.5 1 0.7 1 1.1 0 2.1 -0.6 0.6 -1.2 1.7 -1.2 2.3 0.1 1.3 7 -6.1 7 -7.5z"/>
  <path d="M737.5 784.5 c-4.3 -2.3 -6.5 -4.5 -8.5 -8.5 -5 -9.9 -6.3 -23 -3.5 -34.9 3.1 -13.1 12.7 -30 24 -42 7.9 -8.5 17.5 -13.8 17.5 -9.6 0 0.8 -1.9 2.3 -4.2 3.3 -6.9 3.1 -20.5 18.8 -26.5 30.7 -1.2 2.2 -3.5 8 -5.2 12.8 -2.5 7.2 -3.1 10.4 -3.1 17 0 11.9 3 21.7 7.9 26.1 2.7 2.4 11 3.3 15.3 1.6 12.8 -5.1 26.2 -23.3 33.8 -46 6.6 -19.6 4.7 -31.1 -5.5 -33.9 -4.6 -1.2 -9.6 0.2 -13.9 4 -3.4 3 -8.6 12.2 -8.6 15.3 0 1.1 -0.6 1.6 -1.7 1.4 -2.4 -0.5 -1.9 -5.6 0.9 -10.6 5.5 -9.7 13.9 -14.9 22.3 -14 9.6 1.1 14.1 7.6 13.9 20.3 -0.4 21.6 -20.2 57.2 -36.5 65.6 -5.5 2.8 -14.6 3.5 -18.4 1.4z"/>
  <path d="M281.2 781.7 c-0.7 -0.8 -1 -1.6 -0.8 -1.8 0.2 -0.2 0.9 -3.5 1.4 -7.4 2.2 -14.7 6.3 -36.8 9.8 -51.9 1.9 -8.7 3.3 -16 3.1 -16.3 -0.3 -0.3 -3 0 -5.9 0.7 -26.9 6 -32.8 6.8 -32.8 5 0 -1.5 0.4 -1.6 20.9 -5.9 10 -2.2 18.6 -4.2 18.9 -4.6 0.4 -0.4 1.2 -2 1.8 -3.8 1.5 -4.5 3.4 -4.6 3.4 -0.2 0 3.6 0.1 3.7 3.3 3.2 1.7 -0.3 6.4 -0.9 10.2 -1.3 9.6 -0.9 10.7 -1.5 14.4 -7.3 1.8 -2.8 3.9 -5.1 4.7 -5.1 1.8 0 1.8 3.7 -0.1 7.4 -0.8 1.5 -1.5 2.9 -1.5 3.1 0 0.1 2 0 4.4 -0.2 2.7 -0.4 4.6 -0.1 5.1 0.7 1.1 1.8 0 2.3 -5.8 2.8 l-5.4 0.4 -4.1 8.2 c-2.3 4.4 -6.2 11.7 -8.7 16.1 -2.4 4.4 -5.4 10.9 -6.5 14.5 -2.4 8.2 -5.2 24.2 -4.8 27.8 0.3 2.3 1.1 1.2 5.2 -6.8 8.4 -16.4 17.7 -27.3 20.7 -24.3 0.5 0.5 1 4.6 1.3 9.1 0.2 4.6 0.6 8.6 1 9 1.6 1.5 8.2 -3.6 12 -9.2 2.3 -3.3 5.5 -6.8 7.3 -7.9 2.9 -1.7 3.4 -1.7 6.1 -0.3 l3 1.5 4.1 -5.4 c2.3 -3 4.9 -5.5 5.7 -5.5 1.9 0 1.8 0.3 -3 12 -4.2 10.3 -5.4 16 -3.4 16 0.7 0 3.6 -1.6 6.5 -3.5 3.6 -2.4 5.3 -4.3 5.8 -6.4 0.8 -3.7 4.3 -8.3 5.6 -7.5 0.5 0.3 0.7 1.4 0.4 2.4 -0.4 1.1 0.1 2 1.1 2.4 1.5 0.6 1.3 1.1 -1.4 3.9 -2.7 2.7 -3.3 4.3 -3.8 9.6 -1.2 10.6 3 10 14.8 -2.2 6.8 -7 6.8 -7 6.8 -12.6 0 -4.5 0.6 -6.6 2.7 -9.9 2.8 -4.2 6.7 -6.6 10 -6 2.8 0.5 2.2 3.3 -0.9 3.6 -5.2 0.6 -10.4 10.5 -6.7 12.7 0.6 0.4 0.7 1.9 0.4 3.6 -0.4 1.7 -0.4 5.2 0 7.9 0.8 5.9 0 6.1 14.5 -4.1 5.4 -3.8 10.3 -6.9 10.9 -6.9 3.5 0 -0.4 4 -11.9 12.1 l-13 9.2 -1.1 5.9 c-1.4 7.2 -5.9 13.8 -9.3 13.8 -2.4 0 -5.6 -2.8 -5.6 -4.9 0 -2.4 4 -8.7 7.9 -12.6 3.7 -3.5 4.1 -4.4 4.1 -8.7 0 -2.8 -0.5 -4.8 -1.1 -4.8 -0.6 0 -3.2 2.3 -5.7 5.1 -5.9 6.5 -11.2 9.9 -15.7 9.9 -4.1 0 -5.5 -2.3 -5.5 -9.1 l0 -3.9 -4.1 2.5 c-2.4 1.6 -5.1 2.5 -6.7 2.3 -2.6 -0.3 -2.7 -0.4 -2.6 -7.1 l0.1 -6.8 -7.6 7.4 c-4.2 4.1 -8.3 7.7 -9.2 8 -2 0.7 -3.9 -1 -3.9 -3.4 0 -1.6 -0.3 -1.6 -4.1 -0.1 -4.1 1.6 -4.2 1.6 -6 -0.7 -1.4 -1.7 -1.9 -3.9 -1.9 -8.2 0 -6.2 -0.8 -7.6 -3.2 -5.6 -2.2 1.7 -8.1 11.3 -13.2 21.5 -8.2 16.3 -11.2 17.2 -11 3.4 0.1 -7.7 2.6 -24.1 4.5 -29.7 4 -11.2 7.4 -19.8 10.9 -27.2 2.2 -4.7 3.9 -8.7 3.8 -8.9 -0.8 -0.7 -21 2.4 -21.9 3.3 -0.6 0.6 -1.5 2.9 -1.9 5 -0.4 2.1 -2.2 10.3 -4 18.3 -1.7 8 -4.7 23.5 -6.6 34.4 -1.9 11 -3.8 20.4 -4.2 20.8 -0.5 0.5 -1.4 0.3 -2 -0.5z m119.1 -6.6 c2.2 -3.7 2.2 -6.2 0.2 -5.4 -1.6 0.5 -4.5 5.3 -4.5 7.3 0 2.1 2.6 0.9 4.3 -1.9z m-48.7 -25.3 c8 -8.7 8.8 -9.8 7.7 -10.9 -1.6 -1.6 -5.2 0.6 -4.7 2.9 0.4 1.2 -1 3.2 -4 6 -4.3 4 -5.6 6.2 -3.8 6.2 0.4 0 2.6 -1.9 4.8 -4.2z"/>
  <path d="M793 775.4 c-1.4 -3.6 -1.2 -12.7 0.4 -21.4 0.8 -4.1 1.2 -7.8 0.9 -8.3 -0.2 -0.4 0.7 -3.6 2 -7 1.4 -3.4 3.8 -9.6 5.3 -13.7 5.7 -15.8 16.4 -34 20 -34 2.7 0 2.5 2.6 -0.4 10.1 -3.2 8 -4.2 9.9 -13.8 25.9 -6.9 11.5 -9.8 20 -11.3 33.7 -1 9 -0.5 13.3 1.4 13.3 0.7 0 5.1 -5.1 9.8 -11.4 6.4 -8.7 8.8 -12.7 9.7 -16.8 1.7 -7 2.7 -8.8 4.9 -8.8 1.4 0 1.8 0.5 1.4 2 -0.3 1.1 0 2 0.6 2 2 0 1.1 3.7 -2 7.9 -2 2.9 -3.1 5.5 -3.2 8.2 -0.3 7.7 4.1 6.7 14.2 -3.2 3.3 -3.3 6.4 -7.3 6.8 -8.7 1 -4.5 4.2 -11.2 5.1 -11.2 0.5 0 1.2 2.1 1.6 4.6 0.5 3.8 0.2 5 -1.8 7.7 -1.7 2.3 -2.8 5.5 -3.5 11 -1.4 9.9 -1.4 9.7 0.3 9.7 2.2 0 6.1 -5.5 10 -14.2 3.8 -8.4 6.7 -10.8 12.9 -10.8 2.6 0 4.3 -0.9 7.9 -4.4 4.9 -4.9 9 -6.5 11.3 -4.6 4.8 4 -2.5 15.4 -12.7 19.8 -3 1.2 -3.6 3.8 -1.8 7.3 1.6 2.8 4.9 2.3 11.6 -1.7 7.9 -4.7 13.9 -10.7 15.3 -15.3 0.6 -2.1 2 -4.6 3.1 -5.6 1.7 -1.6 2 -1.6 2.6 -0.2 0.3 0.9 0.3 2.1 -0.1 2.7 -0.3 0.5 0.1 1 0.9 1 2.3 0 2 1 -1.3 4.9 -3 3.5 -4.1 6.9 -4.1 12.6 0 4.1 1.5 4.7 6.1 2.4 5.5 -2.8 13.5 -12.2 17.3 -20.5 1.9 -4.1 4 -7.4 4.6 -7.4 1.6 0 0.2 10 -1.7 12.1 -1.4 1.7 -5.3 11.1 -5.3 12.9 0 2.2 1.6 0.7 3.5 -3.2 2.8 -5.8 7 -11.4 10.1 -13.5 2.6 -1.7 2.7 -1.7 5.1 1.3 1.3 1.6 2.8 3.5 3.4 4.2 1.5 1.8 4.2 0 8 -5.2 4.1 -5.7 8.1 -7.8 12.3 -6.3 2.8 1 3.2 0.8 5.6 -2.2 6.4 -8.4 6.8 -8.7 7.5 -6.9 0.4 1.1 -0.8 5.2 -3 10.5 -3.7 8.5 -5.7 17.3 -3.9 17.3 1.6 0 8.1 -4.4 12.9 -8.7 4.8 -4.4 7.5 -5.4 7.5 -2.9 0 1.2 -2.6 3.6 -14.5 13.3 -1.1 0.9 -3.8 1.7 -6 1.7 l-4 0.1 0.2 -6.9 0.3 -6.9 -7.9 8.2 c-6.1 6.4 -8.2 8 -9.7 7.5 -2.7 -1 -3.5 -2.5 -2.9 -5.4 0.5 -2.1 0.2 -2.6 -1.7 -2.7 -1.3 -0.1 -3.6 -1.7 -5.1 -3.5 l-2.8 -3.3 -2.5 3 c-1.4 1.7 -4.8 7.5 -7.5 13 -5.8 11.4 -7.5 13.6 -9.6 12.8 -1.6 -0.6 -1.4 -5.5 0.3 -13.8 l0.7 -3 -3.4 3.1 c-5.5 5 -8.1 6.4 -12 6.4 -3.1 0 -3.8 -0.4 -4.9 -3 -0.7 -1.6 -1 -4.3 -0.8 -6 0.3 -1.6 0.3 -3 0.1 -3 -0.1 0 -2.6 1.8 -5.5 4 -7 5.3 -10.8 7 -15.5 7 -5.3 0 -7.6 -2.5 -7.7 -8.7 -0.1 -2.7 0.2 -6 0.7 -7.5 0.6 -2.4 0.4 -2.8 -1.2 -2.8 -4.5 0 -6.8 2.2 -9.5 8.9 -2.9 7.3 -10.6 17.1 -13.6 17.1 -2.7 0 -3.4 -1.7 -4 -9.3 l-0.5 -6.7 -3 2.6 c-6.6 5.7 -9.3 7.4 -12.2 7.4 -3.1 0 -5.8 -2.2 -6.4 -5.3 -0.3 -1.3 -2.2 0.6 -6.8 6.8 -3.5 4.7 -7.1 9 -8.1 9.5 -3.3 1.8 -6 1.2 -7 -1.6z m159.7 -26.1 c6.2 -6.5 7.9 -9.1 6.6 -10.4 -1.4 -1.4 -5.4 0.6 -4.7 2.4 0.2 0.7 -1.4 3 -3.6 5.2 -2.2 2.1 -4 4.7 -4 5.7 0 2.6 0.7 2.3 5.7 -2.9z m-75.3 -5.2 c2.4 -2.1 4.8 -6.8 3.8 -7.5 -1.7 -1 -5.7 2 -5.7 4.2 0 1.4 -1 2.7 -2.5 3.5 -1.4 0.7 -2.6 2.1 -2.8 3.1 -0.4 1.7 -0.3 1.7 2.5 0 1.5 -1 3.6 -2.5 4.7 -3.3z m-59.5 -42.4 c0.7 -1.9 0.7 -2.6 0 -2.1 -1.2 0.7 -9.9 18.2 -9.9 19.8 0.1 1.4 8.6 -13.8 9.9 -17.7z"/>
  <path d="M383.4 729.9 c-1 -1.7 2.3 -4.6 3.7 -3.2 0.7 0.7 0.9 1.9 0.6 2.7 -0.7 1.8 -3.3 2.1 -4.3 0.5z"/>
  <path d="M822.4 729.5 c-0.4 -1 -0.1 -2.1 0.7 -2.6 2 -1.2 3.4 -0.5 3.4 1.7 0 2.4 -3.3 3.1 -4.1 0.9z"/>
  <path d="M900.7 729.6 c-0.8 -2 2 -4.3 3.5 -2.8 1.4 1.4 0.3 4.2 -1.6 4.2 -0.7 0 -1.6 -0.6 -1.9 -1.4z"/>
  <path d="M675.7 652.5 c-1.2 -2.9 -4.6 -24.7 -6.2 -38.5 -3.4 -30.6 -1.1 -43 13.6 -72.3 15.3 -30.4 15.6 -55.7 0.7 -79 -5.7 -8.8 -11.1 -14.1 -20.3 -19.7 -9.3 -5.6 -16.9 -8.4 -29 -10.5 -11 -1.9 -16.8 -1.9 -27.5 0 -21.2 3.7 -41.7 14.4 -50.3 26.2 -6.8 9.4 -9.3 16.1 -13.7 37.1 -3.5 16.4 -7.1 25.2 -16.4 39.7 -5 8 -5.5 9.1 -4 10.2 1.7 1.2 10.1 3.3 13.4 3.3 1.1 0 2 0.6 2 1.3 0 0.6 0.5 4.1 1 7.7 0.5 3.6 1.2 13.2 1.4 21.2 0.6 17 1.7 20.5 7.3 24.2 4.5 3 13.9 5 19.2 4.1 10.1 -1.7 14.9 5.4 17.5 26.2 0.9 6.5 1.8 13.5 2.2 15.6 0.4 2.3 0.3 3.7 -0.4 3.7 -1.2 0 -1.8 -2.2 -3.7 -16 -1.6 -11.6 -2.9 -16.2 -5.7 -20.2 -1.9 -2.7 -2.2 -2.8 -11.9 -2.8 -11.3 0 -15.5 -1.3 -20.7 -6.3 -5.6 -5.3 -6.3 -8.3 -7.3 -29.2 -0.5 -10.4 -1.1 -19.5 -1.3 -20.2 -0.3 -0.6 -1.8 -1.4 -3.5 -1.7 -1.7 -0.3 -4.5 -0.9 -6.2 -1.2 -1.7 -0.3 -4.6 -1.9 -6.5 -3.6 -5.3 -4.7 -4.8 -7.2 4.6 -22.3 9.9 -16 11.4 -19.8 15.6 -40.8 4.9 -23.7 9.9 -35 20.2 -45.4 11.5 -11.6 30.8 -19.8 52.9 -22.4 33.3 -4.1 63.5 12.7 78.3 43.6 6 12.4 7.5 19.8 7.4 35.5 0 18.7 -2.7 28 -15.2 54 -3.9 8 -7.8 17.4 -8.7 20.9 -3.6 14.1 -3 29.8 2.2 61 2.2 13.5 2.3 15.5 1 16.8 -1.3 1.3 -1.5 1.3 -2 -0.2z"/>
 </g>
 <g fill="#fa8a86">
  <path d="M567.5 867.1 c-0.8 -2.6 3 -11.3 7.4 -17 2.2 -2.9 4.7 -8.3 6.8 -15 1.8 -5.7 3.2 -10.5 3.1 -10.7 -0.2 -0.1 -3.6 2.5 -7.7 5.8 -8.5 6.8 -11.5 7.4 -11.8 2 -0.1 -1.8 -0.7 -3.9 -1.3 -4.7 -1 -1.2 -1 -1.5 0.1 -1.5 0.7 0 2.8 -1.4 4.6 -3.2 3.9 -3.8 5.8 -3 2.1 1 -3 3.2 -5.1 8.9 -3.7 9.7 0.5 0.4 2.4 -0.3 4.2 -1.4 8.7 -5.6 11.1 -10.2 6.2 -12.1 -3 -1.1 -3.2 -2 -0.5 -2 1 0 2.8 1 3.9 2.2 1.9 2 2.2 2 3.9 0.5 3.8 -3.4 4.2 -1 1.3 6.8 -1 2.8 -2.1 6.6 -2.5 8.5 l-0.6 3.4 2.8 -2.7 c1.6 -1.5 3.1 -2.4 3.5 -2 0.4 0.3 0.7 0.1 0.7 -0.5 0 -2.2 11.2 -11.7 13.7 -11.7 1.5 0 3.4 -1.1 4.8 -3 3.3 -4 4.1 -2.6 1.7 2.8 -2.5 5.6 -3.6 10.7 -2.4 10.7 0.5 0 3 -1.6 5.6 -3.6 6.2 -4.9 6.9 -3.7 1 1.5 -5.6 4.9 -8.9 5.2 -8.9 0.9 -0.1 -4 -1 -4.3 -3.5 -0.9 -3.2 4.5 -5.8 5.7 -7.6 3.4 -1.3 -1.7 -1.8 -1.4 -7.9 5 -3.5 3.8 -6.7 7.8 -7 9 -1.2 4.4 -5.9 15.3 -7.7 18 -2.3 3.2 -3.4 3.4 -4.3 0.8z m6.5 -9.6 c0.6 -1.5 0.8 -3 0.6 -3.2 -0.6 -0.6 -4.6 7.2 -4.6 8.9 0 1.6 2.7 -2.2 4 -5.7z m27.4 -28.6 c2.7 -3.2 3.3 -4.9 1.7 -4.9 -1.1 0 -6.1 5.8 -6.1 7.1 0 1.8 1.9 0.9 4.4 -2.2z"/>
  <path d="M432 846.3 c0.1 -8.5 6 -30 11.9 -43.5 2.8 -6.6 4.6 -6.1 1.9 0.5 -6.2 15.1 -12.9 38.9 -11.4 40.4 0.2 0.3 2.1 -2.7 4.1 -6.6 2.1 -3.9 4.1 -7.1 4.6 -7.1 1.1 0 -0.3 3.7 -4.8 12 -4 7.3 -6.3 8.9 -6.3 4.3z"/>
  <path d="M465.7 847.3 c-1.4 -1.4 -0.6 -4 2.8 -8.2 1.9 -2.4 3.3 -4.6 3.1 -5 -0.9 -1.4 -1.4 -12.1 -0.6 -12.1 0.4 0 1.1 2.5 1.5 5.5 0.3 3 1 5.7 1.4 6 0.9 0.5 7.9 -4.2 12.5 -8.4 l2.8 -2.6 -0.7 3.5 c-0.4 1.9 -1.2 4.6 -1.8 6 -0.6 1.4 -0.9 3.1 -0.8 3.9 0.1 0.7 -0.2 1 -0.9 0.6 -0.7 -0.4 -0.9 -1.9 -0.5 -3.6 0.4 -1.6 0.4 -2.9 0 -2.9 -0.3 0 -3 1.8 -5.9 3.9 -3.9 2.9 -5.5 4.8 -6 7.2 -1 5 -4.8 8.4 -6.9 6.2z m4.3 -5.2 c-0.1 -1.3 -0.3 -1.3 -1.5 0.3 -1.9 2.6 -1.9 4.2 0 2.6 0.8 -0.7 1.5 -2 1.5 -2.9z"/>
  <path d="M535.6 844.3 c-0.4 -1 -0.4 -4.5 -0.1 -7.8 0.8 -7.4 0.6 -8.1 -2.5 -7.7 -3.1 0.4 -4.3 1.5 -4.7 4.4 -0.5 3.3 -2.4 4.9 -5.2 4.6 -2.1 -0.2 -2.7 -1 -3.1 -3.6 l-0.5 -3.4 -2.5 2 c-4 3.1 -9 5.3 -10.2 4.6 -0.6 -0.4 0.1 -1.2 1.8 -1.9 1.6 -0.7 5.9 -3.5 9.6 -6.3 7.6 -5.8 10.3 -6.7 6.4 -2.1 -2.9 3.4 -3.6 8.9 -1.1 8.9 2 0 3.5 -3.2 2.8 -5.8 -0.3 -1.2 -0.1 -2.2 0.3 -2.3 8.7 -0.8 10.7 -2.1 12.8 -8 2.8 -7.9 8.1 -18.1 10.5 -20.3 2.1 -1.9 2.1 -1.9 2.1 0.7 0 1.9 -0.5 2.7 -1.7 2.8 -1.9 0 -8.1 10.9 -6.3 10.9 1.6 0 1.2 1.7 -1.3 5.8 -1.2 2 -2.8 5.3 -3.4 7.2 -1.7 5.3 -2.6 15.7 -1.5 16.4 0.6 0.3 4.3 -3.9 8.4 -9.4 5 -6.8 7.9 -10 9.3 -10 1.9 0 1.9 0.1 -0.2 1.5 -2.7 1.9 -5 8.2 -3.5 9.7 0.6 0.6 1.8 0.8 2.8 0.4 1.3 -0.5 1.5 -1.4 1.1 -4.1 -0.5 -3.2 -0.4 -3.5 1.9 -3.5 1.3 0 2.4 0.5 2.4 1 0 0.6 -0.4 1 -1 1 -0.5 0 -1 0.9 -1 2.1 0 3.6 -1.9 5.9 -5 5.9 -2 0 -3.1 -0.6 -3.5 -2.1 -0.6 -1.8 -1.2 -1.3 -5.2 4 -4.5 6.2 -7.5 7.6 -8.7 4.4z"/>
  <path d="M676.3 844.4 c-0.3 -0.8 -0.3 -4.5 0 -8.1 l0.5 -6.5 -4.7 4.5 c-15.1 14.8 -29.2 11.6 -27.9 -6.3 0.5 -6 5.3 -19.8 6.5 -18.6 0.3 0.2 -0.7 3.9 -2.1 8.1 -4.1 12.1 -3.3 21 2.1 23.4 3.5 1.6 4.8 1.4 10.9 -1.5 7.6 -3.6 15.7 -12 18.3 -19 1.2 -3 2.1 -5.9 2.1 -6.4 0 -1.3 0.8 -1.2 2.4 0.3 1.2 1 1 1.9 -1.1 5.4 -3.2 5.5 -5.3 13.4 -5.2 19.8 l0 5 4 -4.5 c2.2 -2.5 5.8 -7.3 8.1 -10.7 2.3 -3.5 4.3 -6.1 4.5 -5.9 0.2 0.2 -0.3 2.9 -1.2 6 -2.8 9.6 0.1 10.2 8.2 1.9 3 -3.2 6.2 -7.5 7 -9.5 0.8 -2.1 2 -3.8 2.5 -3.8 0.6 0 0.7 0.8 0.3 1.8 -1.2 3 -4.5 12.5 -4.5 13 0 0.3 0.6 -0.3 1.4 -1.4 0.8 -1 1.7 -1.6 2.1 -1.3 0.8 0.8 -4.7 10.1 -6.3 10.7 -1.5 0.5 -1.6 -2.7 -0.2 -6.2 1.3 -3.5 0 -3.3 -3.9 0.8 -5 5.2 -8.1 5.4 -9.8 0.8 -0.8 -2.2 -1.2 -2 -5.6 3.7 -4.7 6.1 -7.2 7.5 -8.4 4.5z"/>
  <path d="M728.5 838.4 c-1 -1 -1.3 -2.6 -1 -4.5 0.6 -3.2 -0.1 -3.2 -3.7 -0.1 -1.6 1.3 -1.8 1.3 -1.8 -0.1 0 -0.8 1.5 -2.7 3.3 -4.2 1.7 -1.5 3.7 -3.7 4.3 -4.8 1.4 -2.5 2.9 -0.5 1.6 2 -1.5 2.8 -2.4 10 -1.4 10.7 1.4 0.8 6.3 -3.2 12.1 -10.1 4.4 -5.3 5.8 -6.4 8 -6.1 2.1 0.2 2.6 0.8 2.6 3.2 0 1.6 -0.6 3.1 -1.3 3.4 -0.7 0.2 -1 -0.2 -0.6 -1.2 0.3 -0.9 0.3 -2.3 0 -3.3 -0.6 -1.4 -1.1 -1.2 -3.7 1.2 -1.6 1.6 -3.5 4.7 -4.1 6.8 -1.1 3.5 -1 4.1 0.7 5.3 1 0.8 1.5 1.7 1 2.1 -0.4 0.5 -1 0.2 -1.2 -0.5 -0.3 -0.6 -0.9 -1 -1.4 -0.7 -0.4 0.3 -1.1 -0.6 -1.5 -2 l-0.7 -2.6 -3.1 2.9 c-4 3.8 -6.2 4.5 -8.1 2.6z"/>
  <path d="M490.8 837.4 c-0.4 -0.4 0.7 -2.1 2.5 -3.8 1.8 -1.7 5 -5.2 7 -7.7 3.9 -4.9 6.8 -6.4 8.6 -4.6 1.4 1.4 1.4 5.4 -0.1 6.3 -0.7 0.5 -0.9 0.1 -0.6 -1.3 0.3 -1.2 0.2 -2.7 -0.3 -3.4 -1.3 -2.1 -5.6 2.6 -7.6 8.2 -1.5 4 -1.9 4.5 -3.4 3.6 -1.4 -0.9 -2.1 -0.6 -3.6 1.2 -1 1.2 -2.1 1.9 -2.5 1.5z"/>
  <path d="M749.7 837.4 c-0.3 -0.3 1.2 -1.6 3.3 -2.8 3.8 -2 7.3 -4.6 13.5 -10.1 1.9 -1.6 3.8 -2.4 5.3 -2.2 1.6 0.3 2.9 -0.4 4.7 -2.7 3.4 -4.4 3.8 -2.9 1 4 -2.6 6.2 -3.1 9.4 -1.6 9.4 0.5 0 2.8 -1.6 5.1 -3.5 2.3 -1.9 4.7 -3.5 5.3 -3.5 1.9 0.1 -8.3 9 -10.3 9 -2.1 0 -3.3 -2.5 -2.5 -5.1 0.9 -2.8 0 -2.3 -4.6 2.1 -4.6 4.5 -5.9 4.9 -6.6 2 -0.5 -1.8 -0.8 -1.8 -5.7 1 -5.6 3.2 -5.9 3.3 -6.9 2.4z m20.2 -9.5 c2.5 -3.3 2.4 -4.3 -0.3 -3.3 -1.4 0.5 -4.6 5.2 -4.6 6.8 0 1.3 2.9 -0.8 4.9 -3.5z"/>
  <path d="M717.6 832.5 c-0.3 -0.9 -0.6 -2.8 -0.6 -4.1 0 -2.8 -0.3 -2.9 -3.5 -0.8 -3.4 2.2 -3.2 0.1 0.2 -2.6 3.3 -2.6 5 -1.3 5.4 4.2 0.4 4 -0.5 5.9 -1.5 3.3z"/>
  <path d="M450.4 831.5 c-1.8 -1.4 -1.7 -1.4 1.2 -0.9 2.1 0.4 3.4 0.1 4.3 -1 1.4 -1.7 3.1 -2.1 3.1 -0.8 0 0.7 -5.2 4.2 -6.2 4.2 -0.2 0 -1.3 -0.7 -2.4 -1.5z"/>
  <path d="M449.7 828.3 c-0.7 -1.2 2.7 -5.7 4.1 -5.2 0.6 0.2 0.1 1.6 -1.3 3.3 -1.2 1.5 -2.5 2.4 -2.8 1.9z"/>
  <path d="M459.7 827.4 c-0.3 -0.3 0.7 -2.4 2.3 -4.7 5.1 -7.6 8 -20.7 4.6 -20.7 -2.3 0 -6.7 4.1 -12.3 11.7 -3 4.1 -5.7 7.2 -6 6.9 -0.8 -0.8 9.6 -15.4 13 -18.2 1.9 -1.6 3.9 -2.4 5.6 -2.2 2.5 0.3 2.6 0.5 2.5 6.3 -0.1 6.3 -4.2 17.5 -6.3 17.5 -0.6 0 -1.1 0.6 -1.1 1.4 0 1.6 -1.4 2.9 -2.3 2z"/>
  <path d="M528.6 819.8 c0.7 -2.5 2.5 -5.1 3 -4.5 0.2 0.2 -0.1 1.8 -0.7 3.5 -1.2 3.6 -3.4 4.5 -2.3 1z"/>
  <path d="M696 820.2 c0 -1.8 2.2 -6.2 3.1 -6.2 0.5 0 0.3 1.2 -0.3 2.8 -1.5 3.3 -2.8 5 -2.8 3.4z"/>
  <path d="M488 819 c0 -0.5 0.7 -1 1.5 -1 0.8 0 1.5 0.5 1.5 1 0 0.6 -0.7 1 -1.5 1 -0.8 0 -1.5 -0.4 -1.5 -1z"/>
  <path d="M669.9 808.3 c1.2 -2.3 2.1 -5.5 2.2 -7 0 -1.5 0.3 -2.2 0.6 -1.5 0.8 2.2 -0.6 7.5 -2.8 10.2 -2 2.5 -2 2.5 0 -1.7z"/>
  <path d="M685 809.6 c0 -0.3 0.9 -2.6 2.1 -5.1 3.4 -7.2 6.8 -8.8 5.4 -2.5 -0.4 1.9 -1.2 3 -1.9 2.7 -0.9 -0.4 -1.1 0.3 -0.8 2 0.3 1.8 0.1 2.4 -0.7 1.9 -0.6 -0.4 -0.9 -1.3 -0.5 -1.9 0.3 -0.7 -0.4 -0.1 -1.5 1.2 -1.2 1.3 -2.1 2 -2.1 1.7z"/>
  <path d="M655 804.9 c0 -0.6 -0.6 -0.7 -1.2 -0.3 -0.7 0.4 -0.4 -0.3 0.7 -1.5 2.3 -2.6 7.5 -5.6 7.5 -4.3 0 0.5 -1.6 2.2 -3.5 3.9 -1.9 1.7 -3.5 2.7 -3.5 2.2z"/>
  <path d="M664.6 797.2 c-0.3 -0.5 0.6 -1.2 2 -1.5 1.5 -0.3 2.3 0 2.1 0.7 -0.5 1.4 -3.3 2 -4.1 0.8z"/>
  <path d="M608.3 539.4 c-1 -2.6 1.7 -3.5 9.4 -3.2 7.7 0.4 8.9 0.8 8 3.3 -0.9 2.3 -16.5 2.2 -17.4 -0.1z"/>
  <path d="M594.3 530.3 c-0.7 -0.2 -1.3 -1.3 -1.3 -2.4 0 -1.9 0.8 -1.9 23.8 -1.7 22.9 0.3 23.7 0.4 23.7 2.3 0 1.9 -0.7 2 -22.5 2.2 -12.4 0.1 -23.1 -0.1 -23.7 -0.4z"/>
  <path d="M586.3 518.4 c-0.3 -0.8 -0.1 -2 0.4 -2.5 0.5 -0.5 13 -0.8 30.9 -0.7 29.1 0.3 29.9 0.4 29.9 2.3 0 2 -0.8 2 -30.3 2.3 -26.8 0.2 -30.3 0.1 -30.9 -1.4z"/>
  <path d="M677.8 509.2 c-10.7 -0.2 -11.8 -0.4 -11.8 -2.1 0 -1 0.7 -2.2 1.6 -2.5 2 -0.8 19.8 -0.8 21.8 0 1.6 0.6 2.2 4 0.9 4.6 -0.5 0.2 -6.1 0.2 -12.5 0z"/>
  <path d="M543 507.1 c0 -2.6 1.8 -3.1 12.6 -3.1 10 0 13.7 1 12.8 3.5 -0.5 1.2 -3 1.5 -13 1.5 -11.5 0 -12.4 -0.1 -12.4 -1.9z"/>
  <path d="M584.7 508.3 c-2.5 -2.5 1.6 -15 7.3 -22.2 4.8 -6 14.1 -10.9 22.2 -11.8 9.8 -1 21.6 3.9 28.2 11.7 4.1 5 7.6 13.9 7.6 19.6 l0 3.4 -32.3 0 c-17.8 0 -32.7 -0.3 -33 -0.7z m59.7 -7.1 c-5.2 -22.5 -33.3 -29.6 -48.5 -12.3 -3.9 4.4 -7.7 14 -6 15 0.5 0.3 13.1 0.5 28 0.3 l27.1 -0.3 -0.6 -2.7z"/>
  <path d="M571.6 465.1 c-5.4 -5.5 -7.7 -8.4 -7.3 -9.5 0.4 -0.9 1.2 -1.6 1.9 -1.6 2 0 17.7 16.1 17.1 17.6 -1.1 2.8 -4.1 1.2 -11.7 -6.5z"/>
  <path d="M650.5 472 c-0.9 -1.5 15.4 -18 17.7 -18 3.6 0 1.7 3.7 -6 11.3 -7.4 7.3 -10.3 9 -11.7 6.7z"/>
  <path d="M614.6 456.4 c-0.8 -2.1 -0.8 -12.9 0 -18.8 0.5 -3.6 1.1 -4.6 2.5 -4.6 1.8 0 1.9 1 1.9 12.5 0 11.6 -0.1 12.5 -1.9 12.5 -1 0 -2.2 -0.7 -2.5 -1.6z"/>
 </g>
</svg>